<mxfile host="app.diagrams.net" modified="2024-04-17T10:52:19.954Z" agent="Mozilla/5.0 (Windows NT 10.0; Win64; x64) AppleWebKit/537.36 (KHTML, like Gecko) Chrome/123.0.0.0 Safari/537.36" etag="Kag3GAPH7cUkHi_RPdxu" version="24.2.5" type="device">
  <diagram name="Página-1" id="1W5nmNritIFGW5d5gAVe">
    <mxGraphModel dx="989" dy="1690" grid="1" gridSize="10" guides="1" tooltips="1" connect="1" arrows="1" fold="1" page="1" pageScale="1" pageWidth="827" pageHeight="1169" math="0" shadow="0">
      <root>
        <mxCell id="0" />
        <mxCell id="1" parent="0" />
        <mxCell id="nQ19X7m0XgzxfUD2mcOu-5" style="edgeStyle=orthogonalEdgeStyle;rounded=0;orthogonalLoop=1;jettySize=auto;html=1;" edge="1" parent="1">
          <mxGeometry relative="1" as="geometry">
            <mxPoint x="130" y="-1000" as="sourcePoint" />
            <mxPoint x="300" y="-1000" as="targetPoint" />
            <Array as="points">
              <mxPoint x="190" y="-1000" />
              <mxPoint x="190" y="-1000" />
            </Array>
          </mxGeometry>
        </mxCell>
        <mxCell id="nQ19X7m0XgzxfUD2mcOu-1" value="cliente" style="shape=umlActor;verticalLabelPosition=bottom;verticalAlign=top;html=1;outlineConnect=0;" vertex="1" parent="1">
          <mxGeometry x="90" y="-1020" width="30" height="60" as="geometry" />
        </mxCell>
        <mxCell id="nQ19X7m0XgzxfUD2mcOu-2" value="1" style="whiteSpace=wrap;html=1;" vertex="1" parent="1">
          <mxGeometry x="60" y="-1040" width="20" height="20" as="geometry" />
        </mxCell>
        <mxCell id="nQ19X7m0XgzxfUD2mcOu-7" style="edgeStyle=orthogonalEdgeStyle;rounded=0;orthogonalLoop=1;jettySize=auto;html=1;" edge="1" parent="1">
          <mxGeometry relative="1" as="geometry">
            <mxPoint x="300" y="-970" as="sourcePoint" />
            <mxPoint x="130" y="-970" as="targetPoint" />
            <Array as="points">
              <mxPoint x="150" y="-970" />
              <mxPoint x="150" y="-970" />
            </Array>
          </mxGeometry>
        </mxCell>
        <mxCell id="nQ19X7m0XgzxfUD2mcOu-3" value=":sistema" style="whiteSpace=wrap;html=1;" vertex="1" parent="1">
          <mxGeometry x="310" y="-1000" width="70" height="30" as="geometry" />
        </mxCell>
        <mxCell id="nQ19X7m0XgzxfUD2mcOu-8" style="edgeStyle=orthogonalEdgeStyle;rounded=0;orthogonalLoop=1;jettySize=auto;html=1;" edge="1" parent="1">
          <mxGeometry relative="1" as="geometry">
            <mxPoint x="80" y="-1000" as="sourcePoint" />
            <mxPoint x="80" y="-960" as="targetPoint" />
            <Array as="points">
              <mxPoint x="70" y="-1000" />
              <mxPoint x="70" y="-960" />
            </Array>
          </mxGeometry>
        </mxCell>
        <mxCell id="nQ19X7m0XgzxfUD2mcOu-10" value="&lt;div&gt;1. selecciona producto&amp;nbsp;&lt;span style=&quot;background-color: initial;&quot;&gt;y escribe cantidad&lt;/span&gt;&lt;/div&gt;&lt;div&gt;&lt;div&gt;&lt;br&gt;&lt;/div&gt;&lt;div&gt;4. selecciona método&amp;nbsp;&lt;span style=&quot;background-color: initial;&quot;&gt;de pago&lt;/span&gt;&lt;/div&gt;&lt;div&gt;&lt;span style=&quot;background-color: initial;&quot;&gt;&lt;br&gt;&lt;/span&gt;&lt;/div&gt;&lt;div&gt;6. introduce datos de pago y realiza pago&lt;/div&gt;&lt;/div&gt;" style="text;html=1;align=left;verticalAlign=middle;resizable=0;points=[];autosize=1;strokeColor=none;fillColor=none;" vertex="1" parent="1">
          <mxGeometry x="120" y="-1100" width="240" height="90" as="geometry" />
        </mxCell>
        <mxCell id="nQ19X7m0XgzxfUD2mcOu-11" value="3.muestra importe y total acumulado&lt;div&gt;&lt;br&gt;&lt;div&gt;5.solicita datos según metodo de pago&lt;/div&gt;&lt;/div&gt;" style="text;html=1;align=left;verticalAlign=middle;resizable=0;points=[];autosize=1;strokeColor=none;fillColor=none;" vertex="1" parent="1">
          <mxGeometry x="140" y="-970" width="230" height="60" as="geometry" />
        </mxCell>
        <mxCell id="nQ19X7m0XgzxfUD2mcOu-12" style="edgeStyle=orthogonalEdgeStyle;rounded=0;orthogonalLoop=1;jettySize=auto;html=1;" edge="1" parent="1">
          <mxGeometry relative="1" as="geometry">
            <mxPoint x="390" y="-1000" as="sourcePoint" />
            <mxPoint x="390" y="-970" as="targetPoint" />
            <Array as="points">
              <mxPoint x="410" y="-1000" />
              <mxPoint x="410" y="-970" />
            </Array>
          </mxGeometry>
        </mxCell>
        <mxCell id="nQ19X7m0XgzxfUD2mcOu-13" value="&lt;div&gt;2.valida datos introducidos por cliente&lt;div&gt;&lt;/div&gt;&lt;/div&gt;&lt;div&gt;&lt;br&gt;&lt;/div&gt;7.sistema confirma pago y&lt;div&gt;registra compra de cliente&lt;/div&gt;" style="text;html=1;align=left;verticalAlign=middle;resizable=0;points=[];autosize=1;strokeColor=none;fillColor=none;" vertex="1" parent="1">
          <mxGeometry x="414" y="-1010" width="220" height="70" as="geometry" />
        </mxCell>
        <mxCell id="nQ19X7m0XgzxfUD2mcOu-14" value="2" style="whiteSpace=wrap;html=1;" vertex="1" parent="1">
          <mxGeometry x="700" y="-1040" width="20" height="20" as="geometry" />
        </mxCell>
        <mxCell id="nQ19X7m0XgzxfUD2mcOu-25" style="edgeStyle=orthogonalEdgeStyle;rounded=0;orthogonalLoop=1;jettySize=auto;html=1;entryX=0;entryY=0;entryDx=0;entryDy=0;" edge="1" parent="1" target="nQ19X7m0XgzxfUD2mcOu-20">
          <mxGeometry relative="1" as="geometry">
            <mxPoint x="690" y="-920" as="sourcePoint" />
            <Array as="points">
              <mxPoint x="850" y="-920" />
              <mxPoint x="850" y="-920" />
            </Array>
          </mxGeometry>
        </mxCell>
        <mxCell id="nQ19X7m0XgzxfUD2mcOu-15" value="alumno" style="shape=umlActor;verticalLabelPosition=bottom;verticalAlign=top;html=1;outlineConnect=0;" vertex="1" parent="1">
          <mxGeometry x="650" y="-940" width="30" height="60" as="geometry" />
        </mxCell>
        <mxCell id="nQ19X7m0XgzxfUD2mcOu-17" value=":registro_Consultas" style="whiteSpace=wrap;html=1;" vertex="1" parent="1">
          <mxGeometry x="880" y="-790" width="100" height="30" as="geometry" />
        </mxCell>
        <mxCell id="nQ19X7m0XgzxfUD2mcOu-22" style="edgeStyle=orthogonalEdgeStyle;rounded=0;orthogonalLoop=1;jettySize=auto;html=1;exitX=0.75;exitY=1;exitDx=0;exitDy=0;entryX=0.75;entryY=0;entryDx=0;entryDy=0;" edge="1" parent="1" source="nQ19X7m0XgzxfUD2mcOu-18" target="nQ19X7m0XgzxfUD2mcOu-20">
          <mxGeometry relative="1" as="geometry" />
        </mxCell>
        <mxCell id="nQ19X7m0XgzxfUD2mcOu-18" value=":horario_curso" style="whiteSpace=wrap;html=1;" vertex="1" parent="1">
          <mxGeometry x="880" y="-1070" width="100" height="30" as="geometry" />
        </mxCell>
        <mxCell id="nQ19X7m0XgzxfUD2mcOu-21" style="edgeStyle=orthogonalEdgeStyle;rounded=0;orthogonalLoop=1;jettySize=auto;html=1;exitX=0.25;exitY=0;exitDx=0;exitDy=0;entryX=0.25;entryY=1;entryDx=0;entryDy=0;" edge="1" parent="1" source="nQ19X7m0XgzxfUD2mcOu-20" target="nQ19X7m0XgzxfUD2mcOu-18">
          <mxGeometry relative="1" as="geometry" />
        </mxCell>
        <mxCell id="nQ19X7m0XgzxfUD2mcOu-24" style="edgeStyle=orthogonalEdgeStyle;rounded=0;orthogonalLoop=1;jettySize=auto;html=1;exitX=0.75;exitY=1;exitDx=0;exitDy=0;entryX=0.75;entryY=0;entryDx=0;entryDy=0;" edge="1" parent="1" source="nQ19X7m0XgzxfUD2mcOu-20" target="nQ19X7m0XgzxfUD2mcOu-17">
          <mxGeometry relative="1" as="geometry" />
        </mxCell>
        <mxCell id="nQ19X7m0XgzxfUD2mcOu-27" style="edgeStyle=orthogonalEdgeStyle;rounded=0;orthogonalLoop=1;jettySize=auto;html=1;exitX=0;exitY=1;exitDx=0;exitDy=0;" edge="1" parent="1" source="nQ19X7m0XgzxfUD2mcOu-20">
          <mxGeometry relative="1" as="geometry">
            <mxPoint x="690" y="-890" as="targetPoint" />
            <Array as="points">
              <mxPoint x="840" y="-890" />
              <mxPoint x="840" y="-890" />
            </Array>
          </mxGeometry>
        </mxCell>
        <mxCell id="nQ19X7m0XgzxfUD2mcOu-20" value=":secretaria" style="whiteSpace=wrap;html=1;" vertex="1" parent="1">
          <mxGeometry x="880" y="-920" width="100" height="30" as="geometry" />
        </mxCell>
        <mxCell id="nQ19X7m0XgzxfUD2mcOu-28" value="1. solicita información sobre curso&lt;div&gt;&lt;br&gt;&lt;/div&gt;&lt;div style=&quot;text-align: left;&quot;&gt;6. almacena datos del alumno&lt;/div&gt;" style="text;html=1;align=center;verticalAlign=middle;resizable=0;points=[];autosize=1;strokeColor=none;fillColor=none;" vertex="1" parent="1">
          <mxGeometry x="680" y="-970" width="200" height="60" as="geometry" />
        </mxCell>
        <mxCell id="nQ19X7m0XgzxfUD2mcOu-29" value="4. entrega curso y precio&lt;div&gt;&lt;br&gt;&lt;/div&gt;&lt;div style=&quot;text-align: left;&quot;&gt;5. solicita datos al alumno&lt;/div&gt;" style="text;html=1;align=center;verticalAlign=middle;resizable=0;points=[];autosize=1;strokeColor=none;fillColor=none;" vertex="1" parent="1">
          <mxGeometry x="710" y="-900" width="160" height="60" as="geometry" />
        </mxCell>
        <mxCell id="nQ19X7m0XgzxfUD2mcOu-30" value="2. busca horarios de los cursos" style="text;html=1;align=center;verticalAlign=middle;resizable=0;points=[];autosize=1;strokeColor=none;fillColor=none;" vertex="1" parent="1">
          <mxGeometry x="720" y="-1020" width="190" height="30" as="geometry" />
        </mxCell>
        <mxCell id="nQ19X7m0XgzxfUD2mcOu-31" value="3. extrae el curso y precio" style="text;html=1;align=center;verticalAlign=middle;resizable=0;points=[];autosize=1;strokeColor=none;fillColor=none;" vertex="1" parent="1">
          <mxGeometry x="950" y="-1002" width="160" height="30" as="geometry" />
        </mxCell>
        <mxCell id="nQ19X7m0XgzxfUD2mcOu-32" value="6. almacena datos del alumno" style="text;html=1;align=left;verticalAlign=middle;resizable=0;points=[];autosize=1;strokeColor=none;fillColor=none;" vertex="1" parent="1">
          <mxGeometry x="960" y="-862" width="180" height="30" as="geometry" />
        </mxCell>
        <mxCell id="nQ19X7m0XgzxfUD2mcOu-33" value="7" style="whiteSpace=wrap;html=1;" vertex="1" parent="1">
          <mxGeometry x="1180" y="-1040" width="20" height="20" as="geometry" />
        </mxCell>
        <mxCell id="nQ19X7m0XgzxfUD2mcOu-34" value="empleado" style="shape=umlActor;verticalLabelPosition=bottom;verticalAlign=top;html=1;outlineConnect=0;" vertex="1" parent="1">
          <mxGeometry x="1226" y="-940" width="30" height="60" as="geometry" />
        </mxCell>
        <mxCell id="nQ19X7m0XgzxfUD2mcOu-37" style="edgeStyle=orthogonalEdgeStyle;rounded=0;orthogonalLoop=1;jettySize=auto;html=1;exitX=0;exitY=1;exitDx=0;exitDy=0;" edge="1" parent="1" source="nQ19X7m0XgzxfUD2mcOu-36">
          <mxGeometry relative="1" as="geometry">
            <mxPoint x="1270" y="-890.1428571428571" as="targetPoint" />
            <Array as="points">
              <mxPoint x="1390" y="-890" />
              <mxPoint x="1390" y="-890" />
            </Array>
          </mxGeometry>
        </mxCell>
        <mxCell id="nQ19X7m0XgzxfUD2mcOu-43" style="edgeStyle=orthogonalEdgeStyle;rounded=0;orthogonalLoop=1;jettySize=auto;html=1;exitX=0.25;exitY=0;exitDx=0;exitDy=0;entryX=0.25;entryY=1;entryDx=0;entryDy=0;" edge="1" parent="1" source="nQ19X7m0XgzxfUD2mcOu-36" target="nQ19X7m0XgzxfUD2mcOu-41">
          <mxGeometry relative="1" as="geometry" />
        </mxCell>
        <mxCell id="nQ19X7m0XgzxfUD2mcOu-49" style="edgeStyle=orthogonalEdgeStyle;rounded=0;orthogonalLoop=1;jettySize=auto;html=1;exitX=0.25;exitY=1;exitDx=0;exitDy=0;entryX=0.25;entryY=0;entryDx=0;entryDy=0;" edge="1" parent="1" source="nQ19X7m0XgzxfUD2mcOu-36" target="nQ19X7m0XgzxfUD2mcOu-42">
          <mxGeometry relative="1" as="geometry" />
        </mxCell>
        <mxCell id="nQ19X7m0XgzxfUD2mcOu-36" value=":sistema" style="whiteSpace=wrap;html=1;" vertex="1" parent="1">
          <mxGeometry x="1520" y="-920" width="100" height="30" as="geometry" />
        </mxCell>
        <mxCell id="nQ19X7m0XgzxfUD2mcOu-38" style="edgeStyle=orthogonalEdgeStyle;rounded=0;orthogonalLoop=1;jettySize=auto;html=1;entryX=0;entryY=0;entryDx=0;entryDy=0;" edge="1" parent="1" target="nQ19X7m0XgzxfUD2mcOu-36">
          <mxGeometry relative="1" as="geometry">
            <mxPoint x="1280" y="-880.1428571428571" as="targetPoint" />
            <mxPoint x="1280" y="-920" as="sourcePoint" />
            <Array as="points">
              <mxPoint x="1380" y="-920" />
              <mxPoint x="1380" y="-920" />
            </Array>
          </mxGeometry>
        </mxCell>
        <mxCell id="nQ19X7m0XgzxfUD2mcOu-39" value="1. introduce datos obra para obtener precio&lt;div&gt;2.hace oferta&lt;/div&gt;" style="text;html=1;align=left;verticalAlign=middle;resizable=0;points=[];autosize=1;strokeColor=none;fillColor=none;" vertex="1" parent="1">
          <mxGeometry x="1260" y="-960" width="250" height="40" as="geometry" />
        </mxCell>
        <mxCell id="nQ19X7m0XgzxfUD2mcOu-40" value="10.envia mensaje(Cuadro subastado)&lt;div&gt;[si sistema acepta oferta]&lt;/div&gt;" style="text;html=1;align=left;verticalAlign=middle;resizable=0;points=[];autosize=1;strokeColor=none;fillColor=none;" vertex="1" parent="1">
          <mxGeometry x="1270" y="-890" width="220" height="40" as="geometry" />
        </mxCell>
        <mxCell id="nQ19X7m0XgzxfUD2mcOu-47" style="edgeStyle=orthogonalEdgeStyle;rounded=0;orthogonalLoop=1;jettySize=auto;html=1;exitX=0.75;exitY=1;exitDx=0;exitDy=0;entryX=0.75;entryY=0;entryDx=0;entryDy=0;" edge="1" parent="1" source="nQ19X7m0XgzxfUD2mcOu-41" target="nQ19X7m0XgzxfUD2mcOu-36">
          <mxGeometry relative="1" as="geometry" />
        </mxCell>
        <mxCell id="nQ19X7m0XgzxfUD2mcOu-41" value=":GUI" style="whiteSpace=wrap;html=1;" vertex="1" parent="1">
          <mxGeometry x="1520" y="-1110" width="100" height="30" as="geometry" />
        </mxCell>
        <mxCell id="nQ19X7m0XgzxfUD2mcOu-51" style="edgeStyle=orthogonalEdgeStyle;rounded=0;orthogonalLoop=1;jettySize=auto;html=1;exitX=0.75;exitY=0;exitDx=0;exitDy=0;entryX=0.75;entryY=1;entryDx=0;entryDy=0;" edge="1" parent="1" source="nQ19X7m0XgzxfUD2mcOu-42" target="nQ19X7m0XgzxfUD2mcOu-36">
          <mxGeometry relative="1" as="geometry" />
        </mxCell>
        <mxCell id="nQ19X7m0XgzxfUD2mcOu-42" value=":Calcular Precio Obra" style="whiteSpace=wrap;html=1;" vertex="1" parent="1">
          <mxGeometry x="1520" y="-800" width="100" height="30" as="geometry" />
        </mxCell>
        <mxCell id="nQ19X7m0XgzxfUD2mcOu-44" value="4. create" style="text;html=1;align=center;verticalAlign=middle;resizable=0;points=[];autosize=1;strokeColor=none;fillColor=none;" vertex="1" parent="1">
          <mxGeometry x="1470" y="-1050" width="70" height="30" as="geometry" />
        </mxCell>
        <mxCell id="nQ19X7m0XgzxfUD2mcOu-45" style="edgeStyle=orthogonalEdgeStyle;rounded=0;orthogonalLoop=1;jettySize=auto;html=1;exitX=0.75;exitY=1;exitDx=0;exitDy=0;entryX=0.25;entryY=1;entryDx=0;entryDy=0;" edge="1" parent="1" source="nQ19X7m0XgzxfUD2mcOu-42" target="nQ19X7m0XgzxfUD2mcOu-42">
          <mxGeometry relative="1" as="geometry" />
        </mxCell>
        <mxCell id="nQ19X7m0XgzxfUD2mcOu-46" value="5. calcula precio max y ajusta en función de cuadros" style="text;html=1;align=center;verticalAlign=middle;resizable=0;points=[];autosize=1;strokeColor=none;fillColor=none;" vertex="1" parent="1">
          <mxGeometry x="1400" y="-742" width="300" height="30" as="geometry" />
        </mxCell>
        <mxCell id="nQ19X7m0XgzxfUD2mcOu-50" value="3.create" style="text;html=1;align=center;verticalAlign=middle;resizable=0;points=[];autosize=1;strokeColor=none;fillColor=none;" vertex="1" parent="1">
          <mxGeometry x="1470" y="-850" width="70" height="30" as="geometry" />
        </mxCell>
        <mxCell id="nQ19X7m0XgzxfUD2mcOu-52" value="6. devuelve precio con valor ajustado&lt;div&gt;8. destroy&lt;/div&gt;" style="text;html=1;align=left;verticalAlign=middle;resizable=0;points=[];autosize=1;strokeColor=none;fillColor=none;" vertex="1" parent="1">
          <mxGeometry x="1600" y="-872" width="220" height="40" as="geometry" />
        </mxCell>
        <mxCell id="nQ19X7m0XgzxfUD2mcOu-53" value="7. transferencia de datos de usuario&lt;div&gt;y presenta valor ajustado&lt;/div&gt;&lt;div&gt;9.destroy&lt;/div&gt;" style="text;html=1;align=left;verticalAlign=middle;resizable=0;points=[];autosize=1;strokeColor=none;fillColor=none;" vertex="1" parent="1">
          <mxGeometry x="1595" y="-1035" width="210" height="60" as="geometry" />
        </mxCell>
      </root>
    </mxGraphModel>
  </diagram>
</mxfile>
